<svg width="131" height="33" viewBox="0 0 131 33" fill="none" xmlns="http://www.w3.org/2000/svg">
<path fill-rule="evenodd" clip-rule="evenodd" d="M0 4.91748H5.19206V7.72906C5.60868 6.78335 6.17968 6.0267 6.90481 5.45887C7.62923 4.89149 8.60788 4.63345 9.84075 4.68519V9.84447H9.40571C8.04633 9.84447 7.00442 10.2232 6.27952 10.9792C5.55463 11.7363 5.19206 12.9228 5.19206 14.5396V18.8732H0V4.91748Z" fill="#00A39D"/>
<path fill-rule="evenodd" clip-rule="evenodd" d="M21.0388 10.7484C20.9479 9.97424 20.6762 9.35982 20.2235 8.90376C19.7703 8.44816 19.1903 8.22013 18.4836 8.22013C17.7946 8.22013 17.233 8.44816 16.7984 8.90376C16.3634 9.35982 16.0731 9.97424 15.9284 10.7484H21.0388ZM18.9186 19.2093C17.7587 19.2093 16.6986 19.033 15.7379 18.6809C14.7774 18.3286 13.948 17.8385 13.2507 17.2102C12.5527 16.5825 12.0093 15.8216 11.6196 14.9272C11.2299 14.0332 11.0352 13.0443 11.0352 11.9606V11.9089C11.0352 10.8944 11.216 9.94444 11.579 9.05832C11.9411 8.17287 12.4528 7.39919 13.1147 6.73684C13.7761 6.07516 14.56 5.55459 15.4662 5.17627C16.3724 4.79794 17.369 4.60889 18.4567 4.60889C19.7249 4.60889 20.8261 4.81496 21.7592 5.22778C22.6923 5.64038 23.4627 6.19499 24.0701 6.89184C24.6772 7.58824 25.1302 8.39642 25.4295 9.31659C25.7283 10.2368 25.8777 11.2125 25.8777 12.2444V12.7347C25.8777 12.9068 25.8685 13.0788 25.8506 13.2504H16.0096C16.209 14.0245 16.5851 14.6006 17.1381 14.979C17.6907 15.3573 18.375 15.5463 19.1903 15.5463C19.8064 15.5463 20.3729 15.4348 20.8894 15.2112C21.4061 14.9879 21.9265 14.6266 22.4525 14.1273L25.3072 16.3715C24.6002 17.2321 23.7254 17.9196 22.6838 18.4356C21.6414 18.9515 20.3863 19.2093 18.9186 19.2093Z" fill="#00A39D"/>
<path fill-rule="evenodd" clip-rule="evenodd" d="M33.9257 19.1827C32.6753 19.1827 31.4609 19.0149 30.2832 18.6798C29.1049 18.3443 28 17.8241 26.9668 17.1188L28.8967 14.1524C29.7484 14.6857 30.6137 15.0853 31.4927 15.3519C32.3715 15.6187 33.1918 15.7515 33.9533 15.7515C34.8229 15.7515 35.2581 15.5026 35.2581 15.0034V14.9523C35.2581 14.6772 35.0582 14.462 34.66 14.307C34.2608 14.1524 33.6719 13.9719 32.893 13.7651C32.1678 13.5935 31.4882 13.3913 30.854 13.1592C30.2195 12.9269 29.6669 12.6431 29.1958 12.308C28.7242 11.9723 28.3531 11.5641 28.0814 11.0826C27.8095 10.6012 27.6738 10.0078 27.6738 9.30247V9.25118C27.6738 8.51155 27.8229 7.85412 28.1222 7.27778C28.4211 6.70167 28.8332 6.22008 29.3591 5.83279C29.8843 5.44595 30.5047 5.14916 31.2211 4.94286C31.937 4.73679 32.7204 4.6333 33.5725 4.6333C34.66 4.6333 35.7291 4.77509 36.7802 5.05912C37.8313 5.34292 38.7825 5.74275 39.6347 6.25838L37.8679 9.35421C37.1064 8.95864 36.3362 8.64483 35.5567 8.41254C34.7775 8.18026 34.098 8.06423 33.518 8.06423C33.1193 8.06423 32.8203 8.12852 32.6208 8.25799C32.4216 8.38701 32.3222 8.54627 32.3222 8.73487V8.78661C32.3222 9.0619 32.5259 9.28097 32.9336 9.44449C33.3412 9.608 33.9349 9.80153 34.7141 10.0249C35.439 10.2144 36.1183 10.4249 36.7533 10.6567C37.3873 10.889 37.9396 11.1731 38.4112 11.5081C38.8824 11.8432 39.2542 12.2525 39.5258 12.7336C39.7975 13.2152 39.9335 13.7913 39.9335 14.462V14.5133C39.9335 15.2874 39.7881 15.9625 39.4987 16.5384C39.2086 17.115 38.8009 17.6008 38.2755 17.9962C37.7494 18.392 37.1154 18.6883 36.3725 18.8861C35.6292 19.0837 34.8134 19.1827 33.9257 19.1827Z" fill="#00A39D"/>
<path fill-rule="evenodd" clip-rule="evenodd" d="M42.1621 18.8723H47.3546V4.9165H42.1621V18.8723Z" fill="#00A39D"/>
<path fill-rule="evenodd" clip-rule="evenodd" d="M50.3174 18.873H55.5099V0.0415039H50.3174V18.873Z" fill="#00A39D"/>
<path fill-rule="evenodd" clip-rule="evenodd" d="M75.9248 10.345C75.8336 9.57091 75.562 8.9565 75.1095 8.50067C74.6562 8.04484 74.0763 7.81681 73.3693 7.81681C72.6805 7.81681 72.119 8.04484 71.6842 8.50067C71.2492 8.9565 70.9591 9.57091 70.8141 10.345H75.9248ZM73.8046 18.8062C72.6447 18.8062 71.5843 18.6297 70.6239 18.2776C69.6632 17.9252 68.8339 17.4351 68.1364 16.8071C67.4387 16.1792 66.8951 15.4185 66.5054 14.5239C66.1156 13.6299 65.9209 12.641 65.9209 11.5573V11.5056C65.9209 10.4911 66.1017 9.54113 66.465 8.65523C66.8271 7.76955 67.3386 6.99587 68.0007 6.33352C68.6619 5.67184 69.4458 5.15127 70.3522 4.77295C71.2581 4.39484 72.2547 4.20557 73.3424 4.20557C74.6109 4.20557 75.7118 4.41187 76.6452 4.82469C77.5783 5.23706 78.3487 5.79167 78.9561 6.48852C79.5629 7.18515 80.0161 7.99332 80.315 8.91349C80.6145 9.83366 80.7639 10.8092 80.7639 11.8413V12.3314C80.7639 12.5035 80.754 12.6755 80.737 12.8471H70.8956C71.0948 13.6212 71.471 14.1973 72.0241 14.5756C72.5764 14.954 73.261 15.143 74.0763 15.143C74.6921 15.143 75.2589 15.0317 75.7751 14.8079C76.2918 14.5846 76.8125 14.2233 77.3384 13.7242L80.1925 15.9684C79.486 16.8288 78.6114 17.5162 77.5698 18.0325C76.5271 18.5484 75.2721 18.8062 73.8046 18.8062Z" fill="#00A39D"/>
<path fill-rule="evenodd" clip-rule="evenodd" d="M82.9648 4.51512H88.1571V6.4753C88.3896 6.18344 88.6495 5.89941 88.9356 5.62457C89.2219 5.34951 89.5439 5.10826 89.9022 4.90196C90.2598 4.69589 90.654 4.52812 91.0839 4.3991C91.513 4.27008 91.9877 4.20557 92.5065 4.20557C94.0918 4.20557 95.3263 4.66117 96.2099 5.57283C97.0931 6.48449 97.5357 7.73976 97.5357 9.33886V18.4709H92.3434V10.9126C92.3434 10.1385 92.1555 9.55433 91.7797 9.15854C91.4042 8.76319 90.9118 8.56518 90.304 8.56518C89.6775 8.56518 89.1634 8.76319 88.7607 9.15854C88.358 9.55433 88.1571 10.1385 88.1571 10.9126V18.4709H82.9648V4.51512Z" fill="#00A39D"/>
<path fill-rule="evenodd" clip-rule="evenodd" d="M107.294 18.8066C106.188 18.8066 105.164 18.613 104.222 18.2262C103.279 17.8394 102.469 17.3192 101.789 16.6656C101.109 16.0118 100.575 15.2424 100.185 14.3565C99.7949 13.471 99.6006 12.5381 99.6006 11.5576V11.5059C99.6006 10.5261 99.7949 9.59321 100.185 8.70709C100.575 7.82141 101.114 7.04796 101.803 6.3856C102.491 5.72392 103.32 5.1991 104.29 4.81182C105.259 4.42498 106.324 4.23145 107.484 4.23145C109.007 4.23145 110.275 4.51547 111.29 5.08285C112.305 5.65045 113.129 6.40756 113.764 7.35282L110.257 9.8293C109.894 9.36519 109.505 9.00388 109.088 8.74584C108.671 8.48802 108.146 8.35899 107.511 8.35899C107.094 8.35899 106.709 8.44075 106.356 8.60427C106.003 8.76779 105.699 8.99111 105.446 9.27446C105.191 9.55849 104.992 9.88552 104.847 10.2549C104.702 10.6252 104.63 11.0248 104.63 11.4548V11.5059C104.63 11.9534 104.702 12.3703 104.847 12.7576C104.992 13.1442 105.191 13.4795 105.446 13.7633C105.699 14.0469 106.007 14.2707 106.37 14.4342C106.732 14.5977 107.131 14.6792 107.566 14.6792C108.182 14.6792 108.703 14.5504 109.129 14.2919C109.554 14.0341 109.976 13.682 110.393 13.2345L113.845 15.6079C113.156 16.5713 112.296 17.345 111.263 17.9294C110.23 18.514 108.906 18.8066 107.294 18.8066Z" fill="#00A39D"/>
<path fill-rule="evenodd" clip-rule="evenodd" d="M120.018 22.6755C119.094 22.6755 118.246 22.5642 117.476 22.3426C116.705 22.1202 115.976 21.8297 115.287 21.4711L116.891 18.0578C117.308 18.2991 117.716 18.4834 118.115 18.6122C118.513 18.7415 118.858 18.806 119.147 18.806C119.401 18.806 119.623 18.767 119.814 18.6897C120.004 18.6118 120.181 18.4612 120.344 18.2372L114.581 4.51465H119.99L122.926 12.9241L125.699 4.51465H131L125.617 18.1349C125.291 18.9433 124.956 19.6354 124.612 20.2118C124.267 20.7879 123.878 21.2567 123.443 21.6178C123.008 21.9789 122.509 22.2452 121.948 22.4172C121.386 22.5892 120.742 22.6755 120.018 22.6755Z" fill="#00A39D"/>
<path fill-rule="evenodd" clip-rule="evenodd" d="M58.5664 7.867V18.9243H63.7589V6.63525L58.5664 7.867Z" fill="#CF2B2B"/>
<path fill-rule="evenodd" clip-rule="evenodd" d="M61.0359 0C59.5535 0 58.3516 1.14036 58.3516 2.54727C58.3516 3.95396 59.5535 5.09454 61.0359 5.09454C62.5185 5.09454 63.7202 3.95396 63.7202 2.54727C63.7202 1.14036 62.5185 0 61.0359 0Z" fill="#CF2B2B"/>
<path fill-rule="evenodd" clip-rule="evenodd" d="M61.0625 30.2832C60.7517 30.417 60.403 30.4848 60.0258 30.4848C59.6489 30.4848 59.3 30.4147 58.9896 30.277C58.6792 30.1388 58.4092 29.9517 58.1873 29.7192C57.9659 29.4878 57.7914 29.2161 57.6687 28.9119C57.5452 28.608 57.4831 28.2814 57.4831 27.9418V27.914C57.4831 27.5745 57.5431 27.2479 57.6614 26.943C57.7787 26.6402 57.9505 26.3712 58.1724 26.1438C58.3943 25.9162 58.6622 25.733 58.9679 25.5993C59.2731 25.466 59.6196 25.3981 59.997 25.3981C60.3733 25.3981 60.7219 25.4682 61.0328 25.606C61.3446 25.7449 61.6173 25.9328 61.8427 26.1642C62.07 26.3976 62.2468 26.6693 62.3684 26.9717C62.4916 27.2757 62.5536 27.6018 62.5536 27.9418V27.9691C62.5536 28.3092 62.4916 28.6358 62.3684 28.939C62.2463 29.2423 62.074 29.5118 61.8566 29.7396C61.6406 29.967 61.3734 30.1495 61.0625 30.2832ZM63.9702 24.3563C63.4827 23.9041 62.8969 23.5417 62.2279 23.2794C61.5585 23.0171 60.8201 22.8838 60.0332 22.8838C59.2462 22.8838 58.5078 23.0171 57.8382 23.2794C57.1685 23.5421 56.5779 23.9063 56.082 24.3626C55.5858 24.8196 55.1942 25.3623 54.9176 25.9751C54.6402 26.5887 54.5 27.2503 54.5 27.9418V27.9691C54.5 28.6608 54.6402 29.3201 54.9176 29.9289C55.1942 30.5379 55.5813 31.0753 56.0671 31.5266C56.5536 31.9791 57.1395 32.3413 57.8094 32.6034C58.4797 32.8663 59.2183 32.9998 60.0044 32.9998C60.7904 32.9998 61.5287 32.8663 62.1986 32.6034C62.8685 32.3413 63.4598 31.9769 63.9553 31.5201C64.4507 31.0636 64.8426 30.5213 65.1197 29.9078C65.3963 29.2956 65.5368 28.634 65.5368 27.9418V27.914C65.5368 27.2219 65.3963 26.5627 65.1192 25.9541C64.8426 25.3457 64.4557 24.8081 63.9702 24.3563Z" fill="#00A39D"/>
<path fill-rule="evenodd" clip-rule="evenodd" d="M72.5189 29.1373H74.518V30.221C74.1068 30.4689 73.5787 30.595 72.9476 30.595C72.5508 30.595 72.184 30.5294 71.8577 30.3999C71.5334 30.2711 71.2461 30.0899 71.0042 29.8615C70.7644 29.6348 70.5755 29.3563 70.4436 29.0349C70.3109 28.7133 70.2437 28.3593 70.2437 27.9828V27.9555C70.2437 27.5975 70.3109 27.2573 70.4426 26.9444C70.5741 26.6321 70.7554 26.3559 70.9818 26.1232C71.2072 25.8914 71.4763 25.7061 71.7822 25.572C72.0865 25.4387 72.4221 25.371 72.7795 25.371C73.2702 25.371 73.7083 25.4481 74.0815 25.6002C74.4559 25.7527 74.8284 25.9769 75.19 26.2654L75.2344 26.3008L76.9589 24.3339L76.9157 24.2988C76.3721 23.8568 75.7652 23.5067 75.1114 23.2588C74.4564 23.0099 73.6666 22.8838 72.7649 22.8838C71.9784 22.8838 71.2381 23.0144 70.5647 23.2722C69.8905 23.5307 69.3035 23.8931 68.8201 24.3496C68.3369 24.8057 67.9516 25.348 67.6759 25.9615C67.4005 26.5757 67.2607 27.2418 67.2607 27.9418V27.9691C67.2607 28.7065 67.4038 29.3915 67.6859 30.0046C67.9672 30.6172 68.3612 31.153 68.8574 31.5963C69.3538 32.0391 69.9472 32.3874 70.6218 32.6323C71.2976 32.8758 72.0426 32.9998 72.8376 32.9998C73.7669 32.9998 74.6124 32.8551 75.3503 32.5698C76.0856 32.2851 76.7337 31.9258 77.2769 31.5029L77.2981 31.4865V27.0759H72.5189V29.1373Z" fill="#00A39D"/>
<path fill-rule="evenodd" clip-rule="evenodd" d="M96.5509 28.9176H94.4465L95.5052 26.386L96.5509 28.9176ZM94.1347 23.0068L89.8035 32.7309L89.7695 32.8068H92.8504L93.5751 31.0888H97.4082L98.1319 32.7728L98.147 32.8068H101.286L96.9198 23.0068H94.1347Z" fill="#00A39D"/>
<path fill-rule="evenodd" clip-rule="evenodd" d="M110.683 23.0767L108.295 26.7522L105.926 23.1026L105.908 23.0767H102.85V32.8079H105.731V27.4387L108.197 31.0238L108.214 31.0484H108.334L110.831 27.4119V32.8079H113.742V23.0767H110.683Z" fill="#00A39D"/>
<path fill-rule="evenodd" clip-rule="evenodd" d="M50.7608 29.4233C51.3754 29.1646 51.873 28.7932 52.241 28.3181C52.6232 27.8256 52.817 27.1955 52.817 26.4442V26.4164C52.817 25.4618 52.5089 24.695 51.9028 24.1382C51.561 23.8042 51.1099 23.5403 50.563 23.3546C50.0179 23.1703 49.344 23.0767 48.5592 23.0767H43.707V32.8079H46.6321V25.4956H48.4145C48.8724 25.4956 49.2364 25.587 49.4951 25.7668C49.7526 25.9456 49.8775 26.2119 49.8775 26.5817V26.6093C49.8775 26.9435 49.7566 27.2018 49.5071 27.3991C49.2584 27.5955 48.8953 27.6952 48.4289 27.6952H47.771V29.8939H47.775L49.8173 32.8079H53.2022L50.7608 29.4233Z" fill="#00A39D"/>
<path fill-rule="evenodd" clip-rule="evenodd" d="M41.6083 25.0613C41.4077 24.6339 41.1169 24.2688 40.7449 23.9758C40.3738 23.6844 39.9187 23.4588 39.3923 23.3063C38.8686 23.1539 38.2782 23.0767 37.6376 23.0767H33.2344V32.8079H36.1595V25.4129H37.4202C37.9161 25.4129 38.3061 25.518 38.5792 25.7256C38.8485 25.9306 38.9847 26.2345 38.9847 26.6294V26.6572C38.9847 27.0304 38.852 27.3173 38.5785 27.5348C38.3054 27.7508 37.9201 27.8601 37.4346 27.8601H37.2915V30.059H37.4926C38.1229 30.059 38.7156 29.9844 39.2538 29.8366C39.795 29.6888 40.2671 29.4634 40.6571 29.1671C41.0482 28.8703 41.3581 28.4984 41.5784 28.0619C41.7986 27.6255 41.9102 27.1137 41.9102 26.5403V26.513C41.9102 25.9772 41.8085 25.4886 41.6083 25.0613Z" fill="#00A39D"/>
<path fill-rule="evenodd" clip-rule="evenodd" d="M86.5286 29.4233C87.1433 29.1646 87.6409 28.7932 88.0089 28.3181C88.391 27.8256 88.5848 27.1955 88.5848 26.4442V26.4164C88.5848 25.4618 88.2765 24.695 87.6706 24.1382C87.3286 23.8042 86.8777 23.5403 86.3306 23.3546C85.7858 23.1703 85.1116 23.0767 84.327 23.0767H79.4746V32.8079H82.3997V25.4956H84.1821C84.64 25.4956 85.004 25.587 85.2629 25.7668C85.5202 25.9456 85.6453 26.2119 85.6453 26.5817V26.6093C85.6453 26.9435 85.5242 27.2018 85.2747 27.3991C85.0262 27.5955 84.6631 27.6952 84.1965 27.6952H83.5386V29.8939H83.5426L85.5849 32.8079H88.97L86.5286 29.4233Z" fill="#00A39D"/>
</svg>
